# Blender v2.76 (sub 0) OBJ File: 'CATAN_mapchip.blend'
# www.blender.org
mtllib CATAN_mapchip.mtl
o Circle
v 1.000000 0.000000 -0.000000
v 0.500000 0.000000 -0.866026
v -0.500000 0.000000 -0.866026
v -1.000000 0.000000 -0.000000
v -0.500000 0.000000 0.866025
v 0.500000 0.000000 0.866030
v 0.500000 0.090000 -0.866026
v 1.000000 0.090000 -0.000000
v -0.500000 0.090000 -0.866026
v -1.000000 0.090000 -0.000000
v -0.500000 0.090000 0.866025
v 0.500000 0.090000 0.866025
v 0.495000 0.100000 -0.857366
v 0.990000 0.100000 -0.000000
v -0.495000 0.100000 -0.857365
v -0.990000 0.100000 -0.000000
v -0.495000 0.100000 0.857365
v 0.495000 0.100000 0.857365
vn 0.000000 -1.000000 0.000000
vn -0.000000 0.654700 -0.755900
vn -0.000000 0.000000 1.000000
vn -0.866000 0.000000 -0.500000
vn 0.866000 0.000000 -0.500000
vn 0.866000 0.000000 0.500000
vn -0.866000 0.000000 0.500000
vn -0.000000 0.000000 -1.000000
vn 0.000000 1.000000 -0.000000
vn 0.000000 0.654700 0.755900
vn -0.654700 0.654700 -0.378000
vn 0.654700 0.654700 -0.378000
vn 0.654700 0.654600 0.378000
vn -0.654700 0.654700 0.378000
usemtl None
s off
f 2//1 1//1 6//1 5//1 4//1 3//1
f 7//2 9//2 15//2 13//2
f 5//3 6//3 12//3 11//3
f 3//4 4//4 10//4 9//4
f 1//5 2//5 7//5 8//5
f 6//6 1//6 8//6 12//6
f 4//7 5//7 11//7 10//7
f 2//8 3//8 9//8 7//8
f 13//9 15//9 16//9 17//9 18//9 14//9
f 11//10 12//10 18//10 17//10
f 9//11 10//11 16//11 15//11
f 8//12 7//12 13//12 14//12
f 12//13 8//13 14//13 18//13
f 10//14 11//14 17//14 16//14
