# Blender v2.76 (sub 0) OBJ File: 'CATAN_House.blend'
# www.blender.org
mtllib CATAN_House.mtl
o Cube
v 0.100000 0.000000 0.000000
v 0.100000 0.000000 0.200000
v -0.100000 0.000000 0.200000
v -0.100000 0.000000 -0.000000
v 0.100000 0.400000 0.000001
v 0.099999 0.400000 0.200001
v -0.100000 0.400000 0.200000
v -0.100000 0.400000 0.000000
v 0.100000 0.188353 0.000000
v -0.100000 0.188353 -0.000000
v 0.100000 0.000000 -0.200000
v -0.099999 0.000000 -0.200000
v 0.100001 0.188354 -0.200000
v -0.099999 0.188354 -0.200000
v 0.000000 0.500000 0.200000
v 0.000000 0.500000 0.000000
v 0.000000 0.288354 -0.200000
v 0.000000 0.288353 0.000000
vn 0.000000 -1.000000 0.000000
vn 0.707100 0.707100 0.000000
vn 1.000000 0.000000 0.000000
vn -0.000000 -0.000000 1.000000
vn -1.000000 -0.000000 -0.000000
vn 0.000000 0.000000 -1.000000
vn -0.707100 0.707100 0.000000
usemtl Material
s off
f 1//1 2//1 3//1 4//1
f 5//2 16//2 15//2 6//2
f 1//3 9//3 5//3 6//3 2//3
f 2//4 6//4 15//4 7//4 3//4
f 3//5 7//5 8//5 10//5 4//5
f 4//5 10//5 14//5 12//5
f 5//6 9//6 18//6 10//6 8//6 16//6
f 13//6 11//6 12//6 14//6 17//6
f 10//7 18//7 17//7 14//7
f 1//1 4//1 12//1 11//1
f 9//3 1//3 11//3 13//3
f 16//7 8//7 7//7 15//7
f 18//2 9//2 13//2 17//2
